<?xml version="1.0" encoding="UTF-8"?>
<svg width="168px" height="24px" viewBox="0 0 168 24" version="1.1" xmlns="http://www.w3.org/2000/svg" xmlns:xlink="http://www.w3.org/1999/xlink">
    <title>02463FAC-8E29-42EA-9D0C-5E20EFBECB88</title>
    <g id="PLO---NEW-CUSTOMER" stroke="none" stroke-width="1" fill="none" fill-rule="evenodd">
        <g id="NEW-CUST---PREVIEW---TAKING-SELFIE" transform="translate(-16.000000, -91.000000)" fill="#E11931" fill-rule="nonzero">
            <g id="Group-4" transform="translate(-0.000000, 24.000000)">
                <g id="foundations_icons_products_homecredit_red" transform="translate(16.000000, 67.000000)">
                    <path d="M106.664427,4 C110.456093,4 112.991711,6.16545062 112.991711,9.62326585 C112.991711,11.7163704 112.025762,13.4049943 110.412186,14.3915322 L114,19.9934231 L109.581093,20 L106.683244,15.363272 L103.791667,15.363272 L103.791667,20 L100,20 L100,4 L106.664427,4 Z M128,4 L128,7.45430246 L119.944535,7.46088208 L119.944535,10.3789452 L126.993475,10.3789452 L126.993475,13.7674514 L119.944535,13.7674514 L119.944535,16.5456975 L128,16.5456975 L128,20 L116,20 L116,4 L128,4 Z M135.971825,4 C140.6548,4 144,7.2687288 144,11.9531395 C144,16.7049635 140.651742,20 135.971825,20 L130,20 L130,4 L135.971825,4 Z M150,4 L150,20 L146,20 L146,4 L150,4 Z M164,4 L164,7.55318056 L159.807211,7.55318056 L159.807211,20 L156.188282,20 L156.188282,7.55318056 L152,7.55318056 L152,4 L164,4 Z M90.2939104,4 C94.2492199,4 97.194766,6.32327032 98,9.84380877 L98,9.84380877 L93.8772018,9.84380877 C93.2748868,8.42165693 92.0235531,7.58230229 90.2697534,7.58230229 C87.7123301,7.58230229 85.9440362,9.44630308 85.9440362,12.0071266 C85.9440362,14.5679501 87.7171616,16.4256162 90.2745848,16.4256162 C92.0283845,16.4256162 93.2797182,15.5894289 93.8820332,14.1641097 L93.8820332,14.1641097 L98,14.1593586 C97.1931555,17.6798971 94.2524409,20 90.2939104,20 C85.5687972,20 82,16.6489162 82,12.0023755 C82,7.3558349 85.5687972,4 90.2939104,4 Z M7.85382514,4 L7.85382514,10.4236818 L14.1716758,10.4236818 L14.1716758,4 L18,4 L18,20 L14.1748634,20 L14.1748634,13.9989721 L7.85382514,13.9989721 L7.85382514,20 L4,20 L4,4 L7.85382514,4 Z M46.7415516,4 L51.9931461,12.5418851 L57.2554022,4 L59.9969538,4 L60,20 L56.3141361,20 L56.3141361,11.9777983 L53.0227511,17.4607873 L53.0227511,17.4838113 L50.9772489,17.4838113 L50.9772489,17.4607873 L47.6630176,11.9301059 L47.6828177,20 L44,20 L44,4 L46.7415516,4 Z M74,4 L74,7.45430246 L65.9428805,7.45923717 L65.9428805,10.3773003 L72.996328,10.3773003 L72.996328,13.7674514 L65.9428805,13.7674514 L65.9428805,16.5456975 L74,16.5456975 L74,20 L62,20 L62,4 L74,4 Z M31.0039468,4 C37.0767232,4 42,8.67854682 42,14.4566309 C42.0010494,16.4277884 41.420607,18.3556682 40.3310114,20 L40.3310114,20 L35.0240427,20 C37.3163412,18.2747598 38.246816,15.2809172 37.3349612,12.564521 C36.4231064,9.84812482 33.8730149,8.01716393 31.0015783,8.01716393 C28.1301417,8.01716393 25.5800502,9.84812482 24.6681954,12.564521 C23.7563406,15.2809172 24.6868154,18.2747598 26.9791139,20 L26.9791139,20 L21.6737242,20 C20.581943,18.356432 20,16.4283552 20,14.4566309 C20,8.67854682 24.9248544,4 31.0039468,4 Z M34,16 C33.58058,17.1919318 32.3684777,18 31,18 C29.6315223,18 28.41942,17.1919318 28,16 L28,16 Z M135.976411,7.57619977 L133.698373,7.57619977 L133.698373,16.4238002 L135.976411,16.4238002 C138.398165,16.4238002 140.25729,14.4951187 140.25729,11.9531395 C140.25729,9.48679478 138.398165,7.57619977 135.976411,7.57619977 Z M106.598566,7.50549789 L103.791667,7.50549789 L103.791667,11.7870722 L106.598566,11.7870722 C108.055332,11.7870722 109.198477,10.9402939 109.198477,9.62326585 C109.198477,8.3062378 108.055332,7.50549789 106.598566,7.50549789 Z" id="Foundations/-Icons/-Others/-Home-Credit/-Red"></path>
                </g>
            </g>
        </g>
    </g>
</svg>